<svg xmlns="http://www.w3.org/2000/svg" width="48" height="48" viewBox="0 0 48 48"><g data-name="Layer 3"><path d="M21.66 7.84a1.17 1.17 0 0 0 0 2.34h4.66A1.19 1.19 0 0 0 27.51 9a1.17 1.17 0 0 0-1.17-1.17zM27.82 34.9A1.17 1.17 0 0 0 29 33.73V18.49a1.19 1.19 0 0 0-1.17-1.17 1.17 1.17 0 0 0-1.17 1.17V33.73A1.17 1.17 0 0 0 27.82 34.9z"/><path d="M38.41,12.53H9.59a1.17,1.17,0,0,0,0,2.34H12V37.23a2.93,2.93,0,0,0,2.93,2.93H33.08A2.91,2.91,0,0,0,36,37.23V14.87h2.4a1.2,1.2,0,0,0,1.19-1.17A1.17,1.17,0,0,0,38.41,12.53Zm-4.75,24.7a.59.59,0,0,1-.6.59H14.9a.59.59,0,0,1-.6-.59V14.87H33.66Z"/><path d="M20.9,34.9a1.18,1.18,0,0,0,1.16-1.17V18.49a1.17,1.17,0,1,0-2.33,0V33.73A1.17,1.17,0,0,0,20.9,34.9Z"/></g></svg>