<svg width="34" height="34" viewBox="0 0 34 34" fill="none" xmlns="http://www.w3.org/2000/svg">
<path d="M28.6666 0.333313H5.33325C4.00717 0.333313 2.7354 0.860097 1.79772 1.79778C0.860037 2.73546 0.333252 4.00723 0.333252 5.33331V7.28331C0.333013 7.97155 0.474863 8.65243 0.749919 9.28331V9.38331C0.985385 9.91827 1.31891 10.4044 1.73325 10.8166L11.9999 21.0166V32C11.9994 32.2832 12.071 32.5619 12.208 32.8098C12.3451 33.0577 12.5431 33.2665 12.7833 33.4166C13.0485 33.581 13.3545 33.6676 13.6666 33.6666C13.9275 33.6651 14.1844 33.6023 14.4166 33.4833L21.0833 30.15C21.3581 30.0115 21.5892 29.7996 21.751 29.5378C21.9128 29.2759 21.999 28.9744 21.9999 28.6666V21.0166L32.1999 10.8166C32.6143 10.4044 32.9478 9.91827 33.1833 9.38331V9.28331C33.4813 8.65736 33.6459 7.97628 33.6666 7.28331V5.33331C33.6666 4.00723 33.1398 2.73546 32.2021 1.79778C31.2644 0.860097 29.9927 0.333313 28.6666 0.333313ZM19.1499 19.15C18.9955 19.3057 18.8732 19.4904 18.7903 19.6935C18.7074 19.8965 18.6653 20.114 18.6666 20.3333V27.6333L15.3333 29.3V20.3333C15.3345 20.114 15.2925 19.8965 15.2095 19.6935C15.1266 19.4904 15.0044 19.3057 14.8499 19.15L6.01659 10.3333H27.9833L19.1499 19.15ZM30.3333 6.99998H3.66659V5.33331C3.66659 4.89129 3.84218 4.46736 4.15474 4.1548C4.4673 3.84224 4.89122 3.66665 5.33325 3.66665H28.6666C29.1086 3.66665 29.5325 3.84224 29.8451 4.1548C30.1577 4.46736 30.3333 4.89129 30.3333 5.33331V6.99998Z" fill="white"/>
</svg>
