<svg width="40" height="40" viewBox="0 0 40 40" fill="none" xmlns="http://www.w3.org/2000/svg">
<path d="M6.1834 27.15C6.02489 26.9983 5.83798 26.8793 5.6334 26.8C5.22763 26.6333 4.7725 26.6333 4.36673 26.8C4.16214 26.8793 3.97523 26.9983 3.81673 27.15C3.66499 27.3085 3.54605 27.4954 3.46673 27.7C3.3391 28.0035 3.30423 28.338 3.36652 28.6614C3.42881 28.9847 3.58547 29.2823 3.81673 29.5167C3.97873 29.6639 4.16475 29.7823 4.36673 29.8667C4.56623 29.9548 4.78194 30.0004 5.00006 30.0004C5.21818 30.0004 5.43389 29.9548 5.6334 29.8667C5.83537 29.7823 6.02139 29.6639 6.1834 29.5167C6.41466 29.2823 6.57132 28.9847 6.63361 28.6614C6.6959 28.338 6.66103 28.0035 6.5334 27.7C6.45407 27.4954 6.33513 27.3085 6.1834 27.15ZM11.6667 13.3333H35.0001C35.4421 13.3333 35.866 13.1577 36.1786 12.8452C36.4911 12.5326 36.6667 12.1087 36.6667 11.6667C36.6667 11.2246 36.4911 10.8007 36.1786 10.4882C35.866 10.1756 35.4421 10 35.0001 10H11.6667C11.2247 10 10.8008 10.1756 10.4882 10.4882C10.1757 10.8007 10.0001 11.2246 10.0001 11.6667C10.0001 12.1087 10.1757 12.5326 10.4882 12.8452C10.8008 13.1577 11.2247 13.3333 11.6667 13.3333ZM6.1834 18.8167C5.94902 18.5854 5.6514 18.4287 5.32808 18.3665C5.00477 18.3042 4.67025 18.339 4.36673 18.4667C4.16475 18.5511 3.97873 18.6694 3.81673 18.8167C3.66499 18.9752 3.54605 19.1621 3.46673 19.3667C3.37855 19.5662 3.33301 19.7819 3.33301 20C3.33301 20.2181 3.37855 20.4338 3.46673 20.6333C3.55113 20.8353 3.66951 21.0213 3.81673 21.1833C3.97873 21.3306 4.16475 21.4489 4.36673 21.5333C4.56623 21.6215 4.78194 21.6671 5.00006 21.6671C5.21818 21.6671 5.43389 21.6215 5.6334 21.5333C5.83537 21.4489 6.02139 21.3306 6.1834 21.1833C6.33061 21.0213 6.44899 20.8353 6.5334 20.6333C6.62157 20.4338 6.66712 20.2181 6.66712 20C6.66712 19.7819 6.62157 19.5662 6.5334 19.3667C6.45407 19.1621 6.33513 18.9752 6.1834 18.8167ZM35.0001 18.3333H11.6667C11.2247 18.3333 10.8008 18.5089 10.4882 18.8215C10.1757 19.1341 10.0001 19.558 10.0001 20C10.0001 20.442 10.1757 20.866 10.4882 21.1785C10.8008 21.4911 11.2247 21.6667 11.6667 21.6667H35.0001C35.4421 21.6667 35.866 21.4911 36.1786 21.1785C36.4911 20.866 36.6667 20.442 36.6667 20C36.6667 19.558 36.4911 19.1341 36.1786 18.8215C35.866 18.5089 35.4421 18.3333 35.0001 18.3333ZM6.1834 10.4833C6.02489 10.3316 5.83798 10.2127 5.6334 10.1333C5.32988 10.0057 4.99536 9.97083 4.67204 10.0331C4.34872 10.0954 4.0511 10.2521 3.81673 10.4833C3.66951 10.6453 3.55113 10.8314 3.46673 11.0333C3.37855 11.2328 3.33301 11.4485 3.33301 11.6667C3.33301 11.8848 3.37855 12.1005 3.46673 12.3C3.55113 12.502 3.66951 12.688 3.81673 12.85C3.97873 12.9972 4.16475 13.1156 4.36673 13.2C4.67025 13.3276 5.00477 13.3625 5.32808 13.3002C5.6514 13.2379 5.94902 13.0813 6.1834 12.85C6.33061 12.688 6.44899 12.502 6.5334 12.3C6.62157 12.1005 6.66712 11.8848 6.66712 11.6667C6.66712 11.4485 6.62157 11.2328 6.5334 11.0333C6.44899 10.8314 6.33061 10.6453 6.1834 10.4833ZM35.0001 26.6667H11.6667C11.2247 26.6667 10.8008 26.8423 10.4882 27.1548C10.1757 27.4674 10.0001 27.8913 10.0001 28.3333C10.0001 28.7754 10.1757 29.1993 10.4882 29.5118C10.8008 29.8244 11.2247 30 11.6667 30H35.0001C35.4421 30 35.866 29.8244 36.1786 29.5118C36.4911 29.1993 36.6667 28.7754 36.6667 28.3333C36.6667 27.8913 36.4911 27.4674 36.1786 27.1548C35.866 26.8423 35.4421 26.6667 35.0001 26.6667Z" fill="white"/>
</svg>
