<svg xmlns="http://www.w3.org/2000/svg" enable-background="new 0 0 64 64" viewBox="0 0 64 64"><path d="M62.5,7.33l-5.83-5.83c-1.99-1.99-5.23-1.99-7.22,0l-5.78,5.78c0,0,0,0,0,0c0,0,0,0,0,0L5.52,45.42
	c-0.12,0.12-0.21,0.27-0.28,0.43c-0.01,0.03-0.03,0.06-0.04,0.09C5.19,45.96,5.17,45.98,5.17,46l-5.1,16.13
	c-0.16,0.51-0.02,1.07,0.35,1.44C0.69,63.85,1.06,64,1.43,64c0.14,0,0.29-0.02,0.43-0.07L18,58.83c0.02-0.01,0.04-0.02,0.07-0.03
	c0.03-0.01,0.06-0.03,0.09-0.04c0.16-0.07,0.3-0.16,0.42-0.28l38.15-38.15c0,0,0,0,0,0c0,0,0,0,0,0l5.78-5.78
	c0.96-0.97,1.5-2.25,1.5-3.61S63.47,8.29,62.5,7.33z M44.68,10.31l3.49,3.49L12.05,49.92l-3.49-3.49L44.68,10.31z M3.63,60.37
	l3.56-11.25l7.69,7.69L3.63,60.37z M17.56,55.44l-3.49-3.49L50.2,15.83l3.49,3.49L17.56,55.44z M60.48,12.53l-4.76,4.76l-9-9
	l4.76-4.76c0.87-0.87,2.29-0.88,3.17,0l5.83,5.83c0.42,0.42,0.66,0.99,0.66,1.58S60.9,12.1,60.48,12.53z"/></svg>