<svg width="40" height="37" viewBox="0 0 40 37" fill="none" xmlns="http://www.w3.org/2000/svg">
<g filter="url(#filter0_d)">
<path d="M14.9999 18.6666H18.3333V22C18.3333 22.442 18.5088 22.8659 18.8214 23.1785C19.134 23.4911 19.5579 23.6666 19.9999 23.6666C20.4419 23.6666 20.8659 23.4911 21.1784 23.1785C21.491 22.8659 21.6666 22.442 21.6666 22V18.6666H24.9999C25.4419 18.6666 25.8659 18.4911 26.1784 18.1785C26.491 17.8659 26.6666 17.442 26.6666 17C26.6666 16.558 26.491 16.134 26.1784 15.8215C25.8659 15.5089 25.4419 15.3333 24.9999 15.3333H21.6666V12C21.6666 11.558 21.491 11.134 21.1784 10.8215C20.8659 10.5089 20.4419 10.3333 19.9999 10.3333C19.5579 10.3333 19.134 10.5089 18.8214 10.8215C18.5088 11.134 18.3333 11.558 18.3333 12V15.3333H14.9999C14.5579 15.3333 14.134 15.5089 13.8214 15.8215C13.5088 16.134 13.3333 16.558 13.3333 17C13.3333 17.442 13.5088 17.8659 13.8214 18.1785C14.134 18.4911 14.5579 18.6666 14.9999 18.6666V18.6666ZM34.9999 0.333313H4.99992C4.55789 0.333313 4.13397 0.508908 3.82141 0.821468C3.50885 1.13403 3.33325 1.55795 3.33325 1.99998V32C3.33325 32.442 3.50885 32.8659 3.82141 33.1785C4.13397 33.4911 4.55789 33.6666 4.99992 33.6666H34.9999C35.4419 33.6666 35.8659 33.4911 36.1784 33.1785C36.491 32.8659 36.6666 32.442 36.6666 32V1.99998C36.6666 1.55795 36.491 1.13403 36.1784 0.821468C35.8659 0.508908 35.4419 0.333313 34.9999 0.333313V0.333313ZM33.3333 30.3333H6.66659V3.66665H33.3333V30.3333Z" fill="white"/>
<path d="M18.8333 18.6666V18.1666H18.3333H14.9999C14.6905 18.1666 14.3938 18.0437 14.175 17.8249C13.9562 17.6061 13.8333 17.3094 13.8333 17C13.8333 16.6906 13.9562 16.3938 14.175 16.175C14.3938 15.9562 14.6905 15.8333 14.9999 15.8333H18.3333H18.8333V15.3333V12C18.8333 11.6906 18.9562 11.3938 19.175 11.175C19.3938 10.9562 19.6905 10.8333 19.9999 10.8333C20.3093 10.8333 20.6061 10.9562 20.8249 11.175C21.0437 11.3938 21.1666 11.6906 21.1666 12V15.3333V15.8333H21.6666H24.9999C25.3093 15.8333 25.6061 15.9562 25.8249 16.175C26.0437 16.3938 26.1666 16.6906 26.1666 17C26.1666 17.3094 26.0437 17.6061 25.8249 17.8249C25.6061 18.0437 25.3093 18.1666 24.9999 18.1666H21.6666H21.1666V18.6666V22C21.1666 22.3094 21.0437 22.6061 20.8249 22.8249C20.6061 23.0437 20.3093 23.1666 19.9999 23.1666C19.6905 23.1666 19.3938 23.0437 19.175 22.8249C18.9562 22.6061 18.8333 22.3094 18.8333 22V18.6666ZM33.3333 30.8333H33.8333V30.3333V3.66665V3.16665H33.3333H6.66659H6.16659V3.66665V30.3333V30.8333H6.66659H33.3333ZM4.99992 0.833313H34.9999C35.3093 0.833313 35.6061 0.95623 35.8249 1.17502C36.0437 1.39381 36.1666 1.69056 36.1666 1.99998V32C36.1666 32.3094 36.0437 32.6061 35.8249 32.8249C35.6061 33.0437 35.3093 33.1666 34.9999 33.1666H4.99992C4.6905 33.1666 4.39375 33.0437 4.17496 32.8249C3.95617 32.6061 3.83325 32.3094 3.83325 32V1.99998C3.83325 1.69056 3.95617 1.39381 4.17496 1.17502C4.39375 0.956229 4.6905 0.833313 4.99992 0.833313Z" stroke="black"/>
<path d="M18.8333 18.6666V18.1666H18.3333H14.9999C14.6905 18.1666 14.3938 18.0437 14.175 17.8249C13.9562 17.6061 13.8333 17.3094 13.8333 17C13.8333 16.6906 13.9562 16.3938 14.175 16.175C14.3938 15.9562 14.6905 15.8333 14.9999 15.8333H18.3333H18.8333V15.3333V12C18.8333 11.6906 18.9562 11.3938 19.175 11.175C19.3938 10.9562 19.6905 10.8333 19.9999 10.8333C20.3093 10.8333 20.6061 10.9562 20.8249 11.175C21.0437 11.3938 21.1666 11.6906 21.1666 12V15.3333V15.8333H21.6666H24.9999C25.3093 15.8333 25.6061 15.9562 25.8249 16.175C26.0437 16.3938 26.1666 16.6906 26.1666 17C26.1666 17.3094 26.0437 17.6061 25.8249 17.8249C25.6061 18.0437 25.3093 18.1666 24.9999 18.1666H21.6666H21.1666V18.6666V22C21.1666 22.3094 21.0437 22.6061 20.8249 22.8249C20.6061 23.0437 20.3093 23.1666 19.9999 23.1666C19.6905 23.1666 19.3938 23.0437 19.175 22.8249C18.9562 22.6061 18.8333 22.3094 18.8333 22V18.6666ZM33.3333 30.8333H33.8333V30.3333V3.66665V3.16665H33.3333H6.66659H6.16659V3.66665V30.3333V30.8333H6.66659H33.3333ZM4.99992 0.833313H34.9999C35.3093 0.833313 35.6061 0.95623 35.8249 1.17502C36.0437 1.39381 36.1666 1.69056 36.1666 1.99998V32C36.1666 32.3094 36.0437 32.6061 35.8249 32.8249C35.6061 33.0437 35.3093 33.1666 34.9999 33.1666H4.99992C4.6905 33.1666 4.39375 33.0437 4.17496 32.8249C3.95617 32.6061 3.83325 32.3094 3.83325 32V1.99998C3.83325 1.69056 3.95617 1.39381 4.17496 1.17502C4.39375 0.956229 4.6905 0.833313 4.99992 0.833313Z" stroke="url(#paint0_linear)"/>
<path d="M18.8333 18.6666V18.1666H18.3333H14.9999C14.6905 18.1666 14.3938 18.0437 14.175 17.8249C13.9562 17.6061 13.8333 17.3094 13.8333 17C13.8333 16.6906 13.9562 16.3938 14.175 16.175C14.3938 15.9562 14.6905 15.8333 14.9999 15.8333H18.3333H18.8333V15.3333V12C18.8333 11.6906 18.9562 11.3938 19.175 11.175C19.3938 10.9562 19.6905 10.8333 19.9999 10.8333C20.3093 10.8333 20.6061 10.9562 20.8249 11.175C21.0437 11.3938 21.1666 11.6906 21.1666 12V15.3333V15.8333H21.6666H24.9999C25.3093 15.8333 25.6061 15.9562 25.8249 16.175C26.0437 16.3938 26.1666 16.6906 26.1666 17C26.1666 17.3094 26.0437 17.6061 25.8249 17.8249C25.6061 18.0437 25.3093 18.1666 24.9999 18.1666H21.6666H21.1666V18.6666V22C21.1666 22.3094 21.0437 22.6061 20.8249 22.8249C20.6061 23.0437 20.3093 23.1666 19.9999 23.1666C19.6905 23.1666 19.3938 23.0437 19.175 22.8249C18.9562 22.6061 18.8333 22.3094 18.8333 22V18.6666ZM33.3333 30.8333H33.8333V30.3333V3.66665V3.16665H33.3333H6.66659H6.16659V3.66665V30.3333V30.8333H6.66659H33.3333ZM4.99992 0.833313H34.9999C35.3093 0.833313 35.6061 0.95623 35.8249 1.17502C36.0437 1.39381 36.1666 1.69056 36.1666 1.99998V32C36.1666 32.3094 36.0437 32.6061 35.8249 32.8249C35.6061 33.0437 35.3093 33.1666 34.9999 33.1666H4.99992C4.6905 33.1666 4.39375 33.0437 4.17496 32.8249C3.95617 32.6061 3.83325 32.3094 3.83325 32V1.99998C3.83325 1.69056 3.95617 1.39381 4.17496 1.17502C4.39375 0.956229 4.6905 0.833313 4.99992 0.833313Z" stroke="url(#paint1_linear)"/>
</g>
<defs>
<filter id="filter0_d" x="-0.666748" y="0.333313" width="41.3333" height="41.3333" filterUnits="userSpaceOnUse" color-interpolation-filters="sRGB">
<feFlood flood-opacity="0" result="BackgroundImageFix"/>
<feColorMatrix in="SourceAlpha" type="matrix" values="0 0 0 0 0 0 0 0 0 0 0 0 0 0 0 0 0 0 127 0"/>
<feOffset dy="4"/>
<feGaussianBlur stdDeviation="2"/>
<feColorMatrix type="matrix" values="0 0 0 0 0 0 0 0 0 0 0 0 0 0 0 0 0 0 0.25 0"/>
<feBlend mode="normal" in2="BackgroundImageFix" result="effect1_dropShadow"/>
<feBlend mode="normal" in="SourceGraphic" in2="effect1_dropShadow" result="shape"/>
</filter>
<linearGradient id="paint0_linear" x1="19.9999" y1="0.333313" x2="19.9999" y2="33.6666" gradientUnits="userSpaceOnUse">
<stop stop-color="white"/>
<stop offset="1" stop-color="white" stop-opacity="0"/>
</linearGradient>
<linearGradient id="paint1_linear" x1="19.9999" y1="0.333313" x2="19.9999" y2="33.6666" gradientUnits="userSpaceOnUse">
<stop stop-color="white"/>
<stop offset="1" stop-color="white" stop-opacity="0"/>
</linearGradient>
</defs>
</svg>
